<svg width="29" height="29" viewBox="0 0 29 29" fill="none" xmlns="http://www.w3.org/2000/svg">
<g clip-path="url(#clip0_59_42)">
<path d="M10.875 22.9583C4.83332 24.7708 4.83332 19.9374 2.41666 19.3333M19.3333 26.5833V21.907C19.3787 21.3308 19.3008 20.7516 19.105 20.2079C18.9091 19.6641 18.5998 19.1682 18.1975 18.7533C21.9917 18.3304 25.9792 16.8924 25.9792 10.2949C25.9788 8.6079 25.3299 6.98556 24.1667 5.76369C24.7175 4.28772 24.6785 2.65628 24.0579 1.20828C24.0579 1.20828 22.6321 0.785362 19.3333 2.99661C16.5638 2.24602 13.6445 2.24602 10.875 2.99661C7.57624 0.785362 6.15041 1.20828 6.15041 1.20828C5.52978 2.65628 5.49083 4.28772 6.04166 5.76369C4.86973 6.99462 4.22012 8.63163 4.22916 10.3312C4.22916 16.8804 8.21666 18.3183 12.0108 18.7895C11.6133 19.2003 11.3067 19.6902 11.111 20.2273C10.9153 20.7645 10.8349 21.3368 10.875 21.907V26.5833" stroke="#444444" stroke-width="4" stroke-linecap="round" stroke-linejoin="round"/>
</g>
<defs>
<clipPath id="clip0_59_42">
<rect width="29" height="29" fill="white"/>
</clipPath>
</defs>
</svg>
