<svg width="115" height="56" viewBox="0 0 115 56" fill="none" xmlns="http://www.w3.org/2000/svg">
<g opacity="0.83">
<path d="M47.7083 41.3333L57.5 48L67.2916 41.3333M47.7083 32L57.5 38.6667L67.2916 32" stroke="#82775A" stroke-opacity="0.4" stroke-width="4" stroke-linecap="round" stroke-linejoin="round"/>
</g>
<path opacity="0.83" d="M5.236 22.176C4.67867 22.176 4.092 22.132 3.476 22.044C2.86 21.956 2.36133 21.8387 1.98 21.692C1.364 21.4427 1.056 21.0247 1.056 20.438C1.056 20.0127 1.18067 19.6753 1.43 19.426C1.694 19.162 2.10467 19.03 2.662 19.03C3.04333 19.03 3.50533 19.0813 4.048 19.184C4.59067 19.2867 5.06733 19.338 5.478 19.338C6.38733 19.338 7.04 19.2207 7.436 18.986C7.832 18.7513 8.03 18.2747 8.03 17.556C8.03 17.1307 7.876 16.7713 7.568 16.478C7.27467 16.1847 6.68067 15.906 5.786 15.642C4.158 15.158 2.97733 14.5567 2.244 13.838C1.52533 13.1193 1.166 12.188 1.166 11.044C1.166 10.0467 1.386 9.20333 1.826 8.514C2.28067 7.81 2.904 7.27467 3.696 6.908C4.488 6.54133 5.39 6.358 6.402 6.358C7.59 6.358 8.57267 6.51933 9.35 6.842C9.966 7.07667 10.274 7.49467 10.274 8.096C10.274 8.52133 10.142 8.866 9.878 9.13C9.62867 9.37933 9.22533 9.504 8.668 9.504C8.30133 9.504 7.90533 9.46733 7.48 9.394C7.05467 9.306 6.63667 9.262 6.226 9.262C5.59533 9.262 5.11867 9.372 4.796 9.592C4.47333 9.812 4.312 10.1787 4.312 10.692C4.312 11.1613 4.53933 11.5867 4.994 11.968C5.44867 12.3493 6.28467 12.7233 7.502 13.09C8.89533 13.5007 9.856 14.058 10.384 14.762C10.912 15.4513 11.176 16.3313 11.176 17.402C11.176 18.9567 10.6553 20.1447 9.614 20.966C8.58733 21.7727 7.128 22.176 5.236 22.176ZM17.8654 22.176C16.076 22.176 14.7487 21.6627 13.8834 20.636C13.018 19.5947 12.5854 18.2233 12.5854 16.522C12.5854 14.8207 13.018 13.4493 13.8834 12.408C14.7487 11.352 16.076 10.824 17.8654 10.824C18.9947 10.824 19.816 10.9413 20.3294 11.176C20.8574 11.4107 21.1214 11.8287 21.1214 12.43C21.1214 12.8553 21.004 13.1633 20.7694 13.354C20.5347 13.5447 20.2194 13.64 19.8234 13.64C19.5447 13.64 19.3247 13.618 19.1634 13.574C19.002 13.53 18.826 13.4933 18.6354 13.464C18.4594 13.42 18.1807 13.398 17.7994 13.398C17.286 13.398 16.8754 13.552 16.5674 13.86C16.274 14.168 16.0614 14.564 15.9294 15.048C15.812 15.5173 15.7534 16.0087 15.7534 16.522C15.7534 17.0207 15.7974 17.512 15.8854 17.996C15.988 18.4653 16.186 18.854 16.4794 19.162C16.7727 19.4553 17.22 19.602 17.8214 19.602C18.3787 19.602 18.7894 19.5653 19.0534 19.492C19.3174 19.404 19.574 19.36 19.8234 19.36C20.2194 19.36 20.5347 19.4333 20.7694 19.58C21.004 19.712 21.1214 19.9907 21.1214 20.416C21.1214 21.0173 20.8574 21.4647 20.3294 21.758C19.816 22.0367 18.9947 22.176 17.8654 22.176ZM24.883 22.176C23.827 22.176 23.299 21.6773 23.299 20.68V12.342C23.299 11.33 23.827 10.824 24.883 10.824C25.411 10.824 25.7924 10.9413 26.027 11.176C26.2617 11.396 26.379 11.7627 26.379 12.276C26.643 11.792 27.017 11.4327 27.501 11.198C27.9997 10.9487 28.579 10.824 29.239 10.824C30.5004 10.824 31.131 11.374 31.131 12.474C31.131 12.8847 30.977 13.1927 30.669 13.398C30.361 13.6033 29.855 13.706 29.151 13.706C28.4617 13.706 27.919 13.772 27.523 13.904C27.127 14.0213 26.8484 14.2487 26.687 14.586C26.5404 14.9087 26.467 15.378 26.467 15.994V20.68C26.467 21.6773 25.939 22.176 24.883 22.176ZM36.3383 22.176C34.769 22.176 33.5297 21.7287 32.6203 20.834C31.711 19.9393 31.2563 18.4947 31.2563 16.5C31.2563 14.4907 31.711 13.046 32.6203 12.166C33.5297 11.2713 34.769 10.824 36.3383 10.824C37.9077 10.824 39.147 11.2713 40.0563 12.166C40.9657 13.046 41.4203 14.4907 41.4203 16.5C41.4203 18.4947 40.9657 19.9393 40.0563 20.834C39.147 21.7287 37.9077 22.176 36.3383 22.176ZM36.3383 19.536C36.749 19.536 37.0937 19.4553 37.3723 19.294C37.651 19.118 37.8637 18.81 38.0103 18.37C38.1717 17.93 38.2523 17.3067 38.2523 16.5C38.2523 15.6933 38.1717 15.07 38.0103 14.63C37.8637 14.19 37.651 13.8893 37.3723 13.728C37.0937 13.552 36.749 13.464 36.3383 13.464C35.9423 13.464 35.5977 13.552 35.3043 13.728C35.0257 13.8893 34.8057 14.19 34.6443 14.63C34.4977 15.07 34.4243 15.6933 34.4243 16.5C34.4243 17.3067 34.4977 17.93 34.6443 18.37C34.8057 18.81 35.0257 19.118 35.3043 19.294C35.5977 19.4553 35.9423 19.536 36.3383 19.536ZM46.7289 20.702C46.7289 21.6847 46.2155 22.176 45.1889 22.176C44.6902 22.176 44.2942 22.0513 44.0009 21.802C43.7075 21.5527 43.5609 21.186 43.5609 20.702V6.952C43.5609 6.424 43.6782 6.006 43.9129 5.698C44.1622 5.39 44.5729 5.236 45.1449 5.236C45.7169 5.236 46.1202 5.39 46.3549 5.698C46.6042 6.006 46.7289 6.424 46.7289 6.952V20.702ZM52.766 20.702C52.766 21.6847 52.2526 22.176 51.226 22.176C50.7273 22.176 50.3313 22.0513 50.038 21.802C49.7446 21.5527 49.598 21.186 49.598 20.702V6.952C49.598 6.424 49.7153 6.006 49.95 5.698C50.1993 5.39 50.61 5.236 51.182 5.236C51.754 5.236 52.1573 5.39 52.392 5.698C52.6413 6.006 52.766 6.424 52.766 6.952V20.702ZM64.9801 22.176C63.3668 22.176 62.0908 21.6627 61.1521 20.636C60.2281 19.6093 59.7661 18.106 59.7661 16.126C59.7661 14.806 59.9568 13.7573 60.3381 12.98C60.7194 12.2027 61.2474 11.6527 61.9221 11.33C62.6114 10.9927 63.3888 10.824 64.2541 10.824C65.0314 10.824 65.6621 10.9193 66.1461 11.11C66.6301 11.3007 67.0114 11.6233 67.2901 12.078C67.1874 11.77 67.1068 11.484 67.0481 11.22C67.0041 10.9413 66.9674 10.6187 66.9381 10.252C66.9234 9.88533 66.9161 9.416 66.9161 8.844V6.952C66.9161 5.808 67.4074 5.236 68.3901 5.236C69.4608 5.236 69.9961 5.808 69.9961 6.952V16.258C69.9961 18.238 69.5561 19.7193 68.6761 20.702C67.7961 21.6847 66.5641 22.176 64.9801 22.176ZM64.8261 19.536C65.4421 19.536 65.9188 19.316 66.2561 18.876C66.6081 18.436 66.7841 17.6147 66.7841 16.412C66.7841 15.6053 66.7034 14.9967 66.5421 14.586C66.3954 14.1607 66.1754 13.8673 65.8821 13.706C65.5888 13.5447 65.2368 13.464 64.8261 13.464C64.4154 13.464 64.0634 13.5447 63.7701 13.706C63.4768 13.8673 63.2494 14.1607 63.0881 14.586C62.9414 14.9967 62.8681 15.6053 62.8681 16.412C62.8681 17.6147 63.0368 18.436 63.3741 18.876C63.7261 19.316 64.2101 19.536 64.8261 19.536ZM77.1586 22.176C75.5893 22.176 74.35 21.7287 73.4406 20.834C72.5313 19.9393 72.0766 18.4947 72.0766 16.5C72.0766 14.4907 72.5313 13.046 73.4406 12.166C74.35 11.2713 75.5893 10.824 77.1586 10.824C78.728 10.824 79.9673 11.2713 80.8766 12.166C81.786 13.046 82.2406 14.4907 82.2406 16.5C82.2406 18.4947 81.786 19.9393 80.8766 20.834C79.9673 21.7287 78.728 22.176 77.1586 22.176ZM77.1586 19.536C77.5693 19.536 77.914 19.4553 78.1926 19.294C78.4713 19.118 78.684 18.81 78.8306 18.37C78.992 17.93 79.0726 17.3067 79.0726 16.5C79.0726 15.6933 78.992 15.07 78.8306 14.63C78.684 14.19 78.4713 13.8893 78.1926 13.728C77.914 13.552 77.5693 13.464 77.1586 13.464C76.7626 13.464 76.418 13.552 76.1246 13.728C75.846 13.8893 75.626 14.19 75.4646 14.63C75.318 15.07 75.2446 15.6933 75.2446 16.5C75.2446 17.3067 75.318 17.93 75.4646 18.37C75.626 18.81 75.846 19.118 76.1246 19.294C76.418 19.4553 76.7626 19.536 77.1586 19.536ZM88.1657 22.176C87.5497 22.176 87.0657 22 86.7137 21.648C86.3617 21.296 86.039 20.702 85.7457 19.866L83.5457 13.2C83.4284 12.804 83.3697 12.518 83.3697 12.342C83.3697 11.9167 83.5237 11.55 83.8317 11.242C84.1544 10.9193 84.5504 10.758 85.0197 10.758C85.3864 10.758 85.6944 10.846 85.9437 11.022C86.2077 11.198 86.3837 11.44 86.4717 11.748L88.5617 18.7C89.1337 17.776 89.537 16.9253 89.7717 16.148C90.021 15.3707 90.1457 14.5273 90.1457 13.618L90.1017 12.1C90.1017 11.7187 90.2557 11.4033 90.5637 11.154C90.8717 10.89 91.253 10.758 91.7077 10.758C91.9717 10.758 92.2064 10.8533 92.4117 11.044C92.617 11.2347 92.815 11.5647 93.0057 12.034C93.1377 12.3567 93.2844 12.7747 93.4457 13.288C93.6217 13.8013 93.8344 14.4907 94.0837 15.356C94.3477 16.2067 94.6704 17.3213 95.0517 18.7C95.565 18.128 95.9684 17.424 96.2617 16.588C96.555 15.7373 96.665 14.7473 96.5917 13.618L96.5037 12.1C96.489 11.7187 96.643 11.4033 96.9657 11.154C97.303 10.89 97.7064 10.758 98.1757 10.758C99.0557 10.758 99.5617 11.176 99.6937 12.012C99.723 12.2027 99.745 12.4227 99.7597 12.672C99.7744 12.9213 99.7817 13.1707 99.7817 13.42C99.7817 14.4907 99.613 15.5687 99.2757 16.654C98.953 17.7247 98.4984 18.7147 97.9117 19.624C97.2957 20.5773 96.7604 21.2447 96.3057 21.626C95.8657 21.9927 95.3817 22.176 94.8537 22.176C94.5017 22.176 94.1424 21.978 93.7757 21.582C93.4237 21.1713 93.0937 20.614 92.7857 19.91C92.4777 19.206 92.2284 18.414 92.0377 17.534C91.891 17.9887 91.6564 18.4873 91.3337 19.03C91.0257 19.558 90.6737 20.064 90.2777 20.548C89.8817 21.032 89.493 21.428 89.1117 21.736C88.745 22.0293 88.4297 22.176 88.1657 22.176ZM103.151 22.176C102.095 22.176 101.567 21.6773 101.567 20.68V15.4C101.567 13.992 102.014 12.8773 102.909 12.056C103.818 11.2347 105.013 10.824 106.495 10.824C107.976 10.824 109.164 11.2347 110.059 12.056C110.968 12.8773 111.423 13.992 111.423 15.4V20.68C111.423 21.6773 110.895 22.176 109.839 22.176C108.783 22.176 108.255 21.6773 108.255 20.68V15.576C108.255 14.8867 108.101 14.366 107.793 14.014C107.485 13.6473 107.052 13.464 106.495 13.464C105.937 13.464 105.505 13.6473 105.197 14.014C104.889 14.366 104.735 14.8867 104.735 15.576V20.68C104.735 21.6773 104.207 22.176 103.151 22.176Z" fill="#82775A" fill-opacity="0.4"/>
</svg>
